<svg id="Слой_2" data-name="Слой 2" xmlns="http://www.w3.org/2000/svg" viewBox="0 0 120 120"><defs><style>.cls-1{fill:none;stroke:#dc140b;stroke-linecap:round;stroke-miterlimit:10;stroke-width:15px;}.cls-2{fill:#c2000b;}</style></defs><line class="cls-1" x1="24.81" y1="79.87" x2="95.53" y2="9.16"/><line class="cls-1" x1="95.53" y1="79.87" x2="24.81" y2="9.16"/><path class="cls-2" d="M8.72,110.66c-3.31,0-5-1.78-5-5.36A5.7,5.7,0,0,1,5,101.37,4.54,4.54,0,0,1,8.55,100a4.74,4.74,0,0,1,1.83.33,2.72,2.72,0,0,1,1.21,1l-1.09,1.42a2.18,2.18,0,0,0-.83-.64,2.72,2.72,0,0,0-1.11-.22,2.5,2.5,0,0,0-2,.89,3.77,3.77,0,0,0-.76,2.53q0,3.58,3.18,3.59a5.38,5.38,0,0,0,2.1-.44l.33,1.79A7.29,7.29,0,0,1,8.72,110.66Z"/><path class="cls-2" d="M16.43,110.66a3.27,3.27,0,0,1-2.6-1,5.27,5.27,0,0,1,0-6,3.27,3.27,0,0,1,2.6-1,3.28,3.28,0,0,1,2.6,1,5.27,5.27,0,0,1,0,6A3.28,3.28,0,0,1,16.43,110.66Zm0-1.88a1.18,1.18,0,0,0,1-.56,3.58,3.58,0,0,0,0-3.17,1.26,1.26,0,0,0-2.1,0,3.58,3.58,0,0,0,0,3.17A1.21,1.21,0,0,0,16.44,108.78Z"/><path class="cls-2" d="M21.93,110.52v-7.77H23.7l.21,1.64v6.13Zm4.59,0V106a1.71,1.71,0,0,0-.29-1.08,1,1,0,0,0-.82-.38c-1,0-1.5.72-1.5,2.15l-.45-2.48h.64a2,2,0,0,1,.54-1.17,1.89,1.89,0,0,1,1.29-.38,2.45,2.45,0,0,1,1.9.74,3.06,3.06,0,0,1,.68,2.11v5.06Z"/><path class="cls-2" d="M30.72,110.52v-7.77h1.77l.21,1.64v6.13Zm4.59,0V106a1.78,1.78,0,0,0-.29-1.08,1,1,0,0,0-.82-.38c-1,0-1.5.72-1.5,2.15l-.45-2.48h.64a2,2,0,0,1,.54-1.17,1.89,1.89,0,0,1,1.29-.38,2.45,2.45,0,0,1,1.9.74,3.06,3.06,0,0,1,.68,2.11v5.06Z"/><path class="cls-2" d="M43.48,110.66a4.32,4.32,0,0,1-3.11-1,4,4,0,0,1-1.1-3,4.29,4.29,0,0,1,.94-3,3.85,3.85,0,0,1,5.2-.08,4,4,0,0,1,.91,2.84c0,.35,0,.68,0,1h-5.7V106h3.79a1.66,1.66,0,0,0-.4-1.2,1.46,1.46,0,0,0-1.12-.42,1.44,1.44,0,0,0-1.2.56,2.49,2.49,0,0,0-.43,1.57,2.14,2.14,0,0,0,.63,1.67,2.64,2.64,0,0,0,1.81.57,8.94,8.94,0,0,0,1-.06,10.2,10.2,0,0,0,1-.15l.19,1.88a12.92,12.92,0,0,1-1.36.17Z"/><path class="cls-2" d="M52.49,110.66a4.69,4.69,0,0,1-3.27-1,3.85,3.85,0,0,1-1.16-3,4,4,0,0,1,1.06-3,4.07,4.07,0,0,1,3-1,4.15,4.15,0,0,1,2.06.47,2.65,2.65,0,0,1,1.22,1.32L54,105.54a2.32,2.32,0,0,0-.81-.78,2.26,2.26,0,0,0-1.09-.27,1.84,1.84,0,0,0-1.4.53,2.14,2.14,0,0,0-.51,1.53,2.07,2.07,0,0,0,.66,1.66,2.71,2.71,0,0,0,1.85.57c.35,0,.7,0,1,0s.69-.08,1-.14l.21,1.85a8.28,8.28,0,0,1-1.23.18C53.3,110.65,52.89,110.66,52.49,110.66Z"/><path class="cls-2" d="M56.37,104.58v-1.83h7.28v1.83Zm1.86,2.15v-6.32h2v6.32ZM62,110.66a4.26,4.26,0,0,1-2.9-.8,3.35,3.35,0,0,1-.89-2.58v-1h2v.82a1.66,1.66,0,0,0,.45,1.29,2.28,2.28,0,0,0,1.51.4,6.24,6.24,0,0,0,.72,0l.88-.1.17,1.85c-.32.06-.63.1-.94.13S62.37,110.66,62,110.66Z"/><path class="cls-2" d="M74.61,110.52v-10.4h1.93v10.4Zm0-8.62v-1.78h7.13v1.78Zm0,4.3v-1.78h5.81v1.78Zm0,4.32v-1.78h7.13v1.78Z"/><path class="cls-2" d="M82.81,110.52v-1.7h5.43v1.7Zm.29-6.07v-1.7H86l.15,1.7Zm1.35,6.07v-7.77h1.68l.3,2.23v5.54Zm2-3.34L86,104.5h.67a1.78,1.78,0,0,1,2-1.89,2,2,0,0,1,1.7.81,4,4,0,0,1,.59,2.34h-2a1.58,1.58,0,0,0-.25-1,1,1,0,0,0-.82-.3,1.14,1.14,0,0,0-1.08.7A4.47,4.47,0,0,0,86.43,107.18Z"/><path class="cls-2" d="M91.6,110.52v-1.7H97v1.7Zm.29-6.07v-1.7h2.93l.15,1.7Zm1.35,6.07v-7.77h1.68l.3,2.23v5.54Zm2-3.34-.46-2.68h.67a1.78,1.78,0,0,1,2-1.89,2,2,0,0,1,1.7.81,4,4,0,0,1,.59,2.34h-2a1.58,1.58,0,0,0-.25-1,1,1,0,0,0-.82-.3,1.16,1.16,0,0,0-1.09.7A4.63,4.63,0,0,0,95.22,107.18Z"/><path class="cls-2" d="M104.32,110.66a3.27,3.27,0,0,1-2.6-1,5.27,5.27,0,0,1,0-6,3.74,3.74,0,0,1,5.2,0,5.27,5.27,0,0,1,0,6A3.28,3.28,0,0,1,104.32,110.66Zm0-1.88a1.18,1.18,0,0,0,1-.56,3.58,3.58,0,0,0,0-3.17,1.26,1.26,0,0,0-2.1,0,3.58,3.58,0,0,0,0,3.17A1.21,1.21,0,0,0,104.33,108.78Z"/><path class="cls-2" d="M109.18,110.52v-1.7h5.43v1.7Zm.29-6.07v-1.7h2.93l.14,1.7Zm1.35,6.07v-7.77h1.68l.29,2.23v5.54Zm2-3.34-.45-2.68H113a1.77,1.77,0,0,1,2-1.89,2,2,0,0,1,1.7.81,4,4,0,0,1,.59,2.34h-2a1.51,1.51,0,0,0-.26-1,1,1,0,0,0-.81-.3,1.15,1.15,0,0,0-1.09.7A4.47,4.47,0,0,0,112.79,107.18Z"/></svg>